<svg version="1.1" id="Layer_1" xmlns="http://www.w3.org/2000/svg" xmlns:xlink="http://www.w3.org/1999/xlink" x="0px" y="0px"
	 width="100%" viewBox="0 0 448 576" enable-background="new 0 0 448 576" xml:space="preserve">
<path fill="#000000" opacity="1.000000" stroke="none" 
	d="
M449.000000,31.000000 
	C449.000000,212.949844 449.000000,394.899689 449.000000,576.924805 
	C299.757996,576.924805 150.515945,576.924805 1.000000,576.924805 
	C1.000000,394.308502 1.000000,211.616898 1.252803,28.630920 
	C6.832382,28.333902 12.162889,28.442524 17.483772,28.264112 
	C19.189295,28.206924 20.223789,26.642302 21.263472,25.306847 
	C27.445557,17.366047 24.303858,9.176957 22.000000,1.000000 
	C153.358231,1.000000 284.716461,1.000000 416.320465,1.184429 
	C413.568756,3.968134 416.461029,6.972776 415.998138,9.774681 
	C414.603851,18.214397 419.283295,22.703814 426.441956,25.636215 
	C429.223145,26.775476 432.063446,27.537802 434.950470,28.317629 
	C439.584137,29.569250 444.646515,28.445364 449.000000,31.000000 
M271.396362,393.826385 
	C270.002838,415.985474 268.609344,438.144562 267.135468,461.581635 
	C265.055420,459.280090 265.130249,458.114777 265.153625,456.945984 
	C265.649292,432.128815 266.174255,407.312103 266.607941,382.493805 
	C266.751007,374.305969 266.696594,374.530060 274.714661,372.581146 
	C286.628876,369.685120 298.014282,365.439117 307.948975,357.957672 
	C295.102966,365.568634 280.904572,368.820038 266.386627,371.104279 
	C259.391602,372.204865 259.412292,372.265594 259.408569,379.227173 
	C259.395447,403.891724 259.569641,428.558441 259.298737,453.220215 
	C259.046326,476.197571 257.792572,499.146790 256.481781,522.089050 
	C255.959686,531.226929 255.573792,540.378662 255.417450,549.529114 
	C255.319946,555.236084 258.465240,559.370667 263.350708,561.900208 
	C267.940704,564.276794 270.714447,560.409485 273.820496,558.087219 
	C274.882294,557.293335 275.798615,556.302734 276.767303,555.386963 
	C294.005737,539.090393 309.515045,521.218384 324.088440,502.559082 
	C336.109314,487.167999 347.178436,471.103516 353.584381,452.379089 
	C354.861084,448.647217 356.526306,444.838806 354.954407,440.733826 
	C351.949127,432.885681 348.916840,425.047882 345.895752,417.205811 
	C345.587830,422.578125 347.366089,427.450592 349.434814,432.038300 
	C354.118469,442.424957 352.322693,452.074188 347.503387,461.768127 
	C340.790649,475.270538 332.310913,487.572449 322.956207,499.347778 
	C307.570770,518.714355 290.470734,536.429810 272.000824,552.845337 
	C270.444214,554.228821 268.587921,556.365784 266.447327,554.140625 
	C263.192383,550.757141 260.607208,547.034302 260.929749,541.799805 
	C261.983887,524.691528 262.763123,507.566467 263.726288,490.452271 
	C264.041351,484.854248 264.595520,479.269745 265.132599,472.519196 
	C266.830780,475.613861 266.379303,477.649231 266.376282,479.592499 
	C266.345825,499.090485 266.234161,518.588379 266.211029,538.086304 
	C266.207520,541.042908 265.657806,544.751038 268.651886,546.266296 
	C271.784576,547.851807 273.573761,544.290466 275.570435,542.583984 
	C290.815674,529.554077 304.567505,515.039001 317.173004,499.475098 
	C328.508057,485.479828 339.325684,471.115448 346.330139,454.271851 
	C349.050659,447.729736 349.250000,441.530121 346.345032,434.978516 
	C342.766602,426.908020 339.924805,418.539124 337.925171,409.916412 
	C333.557617,391.082916 337.121643,372.522919 339.937683,353.946045 
	C340.241455,351.942108 341.356964,350.643311 343.704224,350.871094 
	C347.280792,351.218201 348.779449,349.475769 348.977386,345.925934 
	C349.727295,332.474243 350.410980,319.005402 352.751953,305.707520 
	C353.351257,302.303223 352.319885,300.494507 348.995850,299.343475 
	C307.373108,284.930145 269.251892,264.052338 234.711807,236.738968 
	C230.377808,233.311737 227.402328,233.365540 223.100555,236.752213 
	C206.066132,250.162918 188.265778,262.475555 169.159256,272.831116 
	C150.224609,283.093506 130.610596,291.825928 110.299835,298.933655 
	C105.718575,300.536835 104.392624,302.919647 105.374207,307.428864 
	C107.933907,319.187805 108.196709,331.200500 109.012703,343.146423 
	C109.540443,350.872314 109.485168,350.876099 116.785789,351.041595 
	C118.865829,353.368896 118.412292,356.418640 118.853661,359.126831 
	C121.262207,373.905731 123.852478,388.703094 121.347809,403.763641 
	C119.506378,414.836212 116.071609,425.439178 111.463387,435.634308 
	C108.892006,441.323151 108.877747,446.775635 111.063965,452.553009 
	C114.212257,460.872772 118.421913,468.608765 123.365402,475.946350 
	C140.600601,501.528687 161.312057,524.045654 184.253189,544.570068 
	C185.546204,545.726868 186.801834,547.808350 188.847763,546.846008 
	C190.946411,545.858826 191.583572,543.613708 191.637436,541.340271 
	C191.692673,539.008179 191.722076,536.674255 191.699310,534.341736 
	C191.523743,516.347534 191.310562,498.353729 191.173996,480.359283 
	C191.156433,478.047882 190.784775,475.563110 192.753952,472.872253 
	C193.061005,474.239899 193.292557,474.859375 193.328186,475.489929 
	C194.295486,492.612457 195.305893,509.733002 196.159805,526.861267 
	C196.466644,533.015930 196.465698,539.189697 196.459488,545.354675 
	C196.455215,549.588013 194.073044,552.882446 190.639923,554.637634 
	C187.799728,556.089722 186.013870,552.771912 184.098969,551.122803 
	C168.902649,538.036011 155.297501,523.373352 142.385010,508.088928 
	C130.011169,493.442078 118.163078,478.383087 109.942535,460.844879 
	C105.364090,451.076904 103.871964,441.518402 108.628479,431.086975 
	C112.185753,423.285522 114.671921,414.894379 114.785522,406.054016 
	C112.015640,417.704407 107.704147,428.819244 103.290977,439.899231 
	C102.270416,442.461487 102.193581,445.016296 102.909424,447.717682 
	C104.320045,453.040985 105.912369,458.280945 108.378815,463.227203 
	C118.569290,483.663605 132.337891,501.625183 147.041107,518.917786 
	C159.244827,533.270752 171.805206,547.313049 186.187592,559.557739 
	C191.441940,564.031189 194.843307,563.339539 199.249664,558.041687 
	C203.823975,552.541931 202.850189,546.072021 202.464386,539.848572 
	C200.578674,509.429535 198.833923,479.006134 198.672623,448.520081 
	C198.548325,425.022644 198.564270,401.523804 198.678223,378.026367 
	C198.698090,373.929443 197.282227,371.791229 193.133270,371.367218 
	C190.165955,371.063904 187.222870,370.464966 184.290543,369.888306 
	C172.554489,367.580292 161.038528,364.609802 150.170120,357.457611 
	C151.206711,359.736237 152.473999,360.218964 153.620438,360.872253 
	C163.676071,366.601959 174.176041,371.146881 185.720993,372.882843 
	C189.185898,373.403870 191.401566,374.543091 191.430267,378.829773 
	C191.604324,404.823029 192.039261,430.814484 192.347488,456.807037 
	C192.367004,458.453552 192.758194,460.282257 191.319427,462.060028 
	C189.713791,460.152496 189.873306,458.283417 189.823090,456.513397 
	C189.152649,432.877014 187.614609,409.293640 185.859177,385.715820 
	C185.523102,381.201904 184.192795,378.527588 179.752625,377.458588 
	C177.660370,376.954865 175.644775,376.093536 173.635300,375.291809 
	C163.206131,371.130981 153.256271,366.152710 145.101242,358.199799 
	C143.813400,356.943848 141.856674,355.672760 142.447678,353.696075 
	C143.679962,349.574524 142.939514,345.432373 143.136383,341.310120 
	C143.249695,338.937347 143.721909,337.176880 146.397202,336.461609 
	C167.365967,330.855316 187.822083,329.857697 206.841660,342.794098 
	C207.753983,343.414642 208.652374,344.389099 210.031769,343.519775 
	C210.165924,341.110077 208.522781,339.541595 207.153458,337.964996 
	C198.877213,328.435913 188.209106,324.748474 175.859604,325.713715 
	C161.752808,326.816345 148.504013,331.222168 135.541473,336.641479 
	C134.026031,337.275055 132.543930,338.653137 130.642944,337.763489 
	C130.760193,336.509155 131.517624,336.092438 132.235443,335.712128 
	C145.713425,328.571136 159.777344,322.876465 174.952271,320.858826 
	C195.647034,318.107269 211.235840,327.645569 217.661667,346.480652 
	C220.372955,354.427826 221.113861,362.655731 220.669342,371.075989 
	C220.060028,382.617126 217.678955,393.818298 214.950363,404.977295 
	C214.307617,407.605896 213.627258,410.306000 214.947281,412.787628 
	C218.092606,418.700653 222.270020,423.905334 226.699173,428.900970 
	C228.198944,430.592651 229.937668,430.752350 231.364090,428.909027 
	C238.184738,420.094849 245.558014,412.395752 241.439056,398.813995 
	C236.879211,383.778595 235.284393,367.702332 238.785004,351.904846 
	C242.843735,333.588623 255.193848,319.219604 278.190491,320.579071 
	C295.562256,321.606079 311.055878,328.466736 326.205597,336.315765 
	C326.745758,336.595612 327.246155,337.163910 326.421753,338.433777 
	C321.818268,336.666321 317.125214,334.698120 312.321716,333.052002 
	C298.912720,328.456818 285.505768,324.002899 270.905670,326.300415 
	C261.664764,327.754578 249.085388,336.131073 246.446518,346.436279 
	C265.843475,330.126648 287.787628,330.031738 310.702576,336.102417 
	C312.646057,336.617249 314.686798,337.215240 314.880890,339.740448 
	C315.173889,343.553131 316.318542,347.796570 314.554718,351.053467 
	C313.008759,353.908051 315.960236,353.770355 316.325745,356.068146 
	C315.173767,356.987885 313.696228,358.061218 312.338501,359.269196 
	C304.509308,366.234924 295.651611,371.858948 285.694214,374.649200 
	C275.819489,377.416321 270.442688,382.306122 271.396362,393.826385 
M196.660919,170.695572 
	C196.158920,166.903870 195.784561,163.089828 195.125977,159.325516 
	C194.052338,153.188965 193.618164,152.916626 187.627136,154.839127 
	C159.830902,163.758774 138.050369,180.397766 123.370544,205.776016 
	C110.107887,228.704285 105.500908,254.750763 97.566078,279.584259 
	C96.440643,283.106506 96.808823,287.183075 98.109283,290.926788 
	C100.402359,297.527954 101.606293,298.260498 107.718811,295.357971 
	C149.360321,275.584473 189.848572,253.893738 225.020004,223.562958 
	C228.045898,220.953506 230.152100,221.096832 233.142075,223.593109 
	C239.916641,229.249100 246.876114,234.700882 253.963928,239.961456 
	C284.349731,262.513611 317.556976,280.155426 351.774597,296.051575 
	C355.995331,298.012360 357.893829,296.641510 359.218964,292.753662 
	C360.818787,288.059845 361.080261,283.340240 360.119019,278.491425 
	C357.260162,264.070801 351.572784,250.499069 347.469818,236.446716 
	C335.878784,196.748505 311.332550,168.784073 271.563965,155.251801 
	C264.024689,152.686356 263.329132,153.271591 262.364227,161.345825 
	C261.076050,172.125244 260.637299,182.910599 261.228790,193.755432 
	C261.358582,196.134995 262.067719,198.691879 260.347778,201.374817 
	C239.259857,197.218292 218.014191,196.981049 196.188431,201.393692 
	C196.812668,190.787003 198.494720,181.195587 196.660919,170.695572 
M260.961548,79.593719 
	C264.991180,71.458305 269.020782,63.322899 273.050385,55.187489 
	C263.143494,58.283295 258.873077,66.361214 253.822479,73.797813 
	C254.611084,67.560287 257.629761,62.415184 260.267242,57.126232 
	C262.683594,52.280674 262.251984,51.375996 256.704773,51.476704 
	C250.047607,51.597561 243.198273,53.166061 236.800186,52.031746 
	C230.791901,50.966534 225.350388,51.348652 219.479996,52.117043 
	C213.435883,52.908169 207.181183,52.020145 201.018738,52.023491 
	C199.326752,52.024410 197.254227,51.478546 196.031555,53.857983 
	C199.034943,60.227547 203.279602,66.312721 203.681656,73.889809 
	C198.630600,66.495995 194.946838,58.026070 185.900787,54.152130 
	C184.752411,56.747017 186.060913,58.038826 186.847443,59.434940 
	C199.044205,81.084015 208.120529,103.842575 211.368271,128.652557 
	C211.858505,132.397522 213.671829,134.397690 217.510025,134.415176 
	C225.340790,134.450851 233.171524,134.489319 241.002258,134.530441 
	C244.682312,134.549774 246.232254,132.673264 246.692307,129.053757 
	C248.847733,112.095772 253.584106,95.850319 260.961548,79.593719 
M190.645172,46.661396 
	C199.720596,47.919781 208.789932,43.665230 217.869461,46.626217 
	C218.019363,46.675106 218.230515,46.687424 218.362305,46.619011 
	C225.295898,43.019653 231.971298,45.368679 239.180283,46.157131 
	C249.578598,47.294407 260.372009,46.035351 271.000977,46.606739 
	C274.781586,46.809978 276.054657,44.754963 275.539459,41.251823 
	C274.935730,37.146687 274.131989,33.058029 273.794922,28.931189 
	C273.572662,26.209879 273.006500,24.151043 269.418365,24.064173 
	C270.636322,21.417109 271.588654,19.320240 272.564056,17.234161 
	C273.807739,14.574298 272.758026,12.643240 270.098267,12.608738 
	C260.311371,12.481786 249.415558,8.689938 242.703918,20.053883 
	C242.518875,20.367222 241.854935,20.397724 241.184097,20.644958 
	C241.052383,19.864050 240.723038,19.175644 240.875656,18.619505 
	C242.299957,13.429373 239.776306,12.069899 235.134140,12.330523 
	C231.650146,12.526122 228.146378,12.365356 224.651413,12.370892 
	C216.805481,12.383319 216.810760,12.385729 216.126190,20.033237 
	C216.107025,20.247423 215.684570,20.425512 214.714493,21.232243 
	C210.890045,10.357062 201.745712,12.288078 193.341125,12.268699 
	C192.176468,12.266014 191.009888,12.277369 189.847275,12.339553 
	C183.759232,12.665178 183.139359,13.771949 185.628708,19.268307 
	C186.297440,20.744831 188.480392,22.890869 186.194138,23.944876 
	C183.587555,25.146563 184.080078,27.077917 183.818481,28.848112 
	C183.187988,33.114407 183.030701,37.459431 182.244720,41.691383 
	C181.512024,45.636406 183.086121,46.911057 186.714417,46.673096 
	C187.708557,46.607899 188.710815,46.666309 190.645172,46.661396 
M229.565369,177.862579 
	C234.358780,177.407410 239.157089,176.997498 243.943527,176.478088 
	C246.362732,176.215561 249.144516,175.534714 248.515442,172.465820 
	C247.283020,166.453506 247.952316,160.576797 248.675354,154.641434 
	C249.022995,151.787460 247.723404,150.323166 244.816971,150.023666 
	C234.188522,148.928543 223.547180,149.346878 212.907791,149.658356 
	C210.083450,149.741028 208.933640,151.120377 209.143082,154.184341 
	C209.525909,159.784348 210.845932,165.453552 209.135132,171.022583 
	C207.922668,174.969421 209.915436,176.463577 213.257553,176.444016 
	C218.448395,176.413651 223.512405,177.364716 229.565369,177.862579 
M203.148712,188.237717 
	C203.254929,191.547440 204.386093,193.589554 208.278214,193.256073 
	C221.399292,192.131882 234.519043,192.001511 247.637512,193.518799 
	C252.810760,194.117126 254.782333,192.438904 255.007309,187.859100 
	C255.235886,183.205795 253.589813,181.557571 248.317322,181.407196 
	C235.369934,181.037918 222.449326,179.634872 209.456100,181.247742 
	C205.241257,181.770950 202.751587,182.796234 203.148712,188.237717 
M211.774841,142.463425 
	C209.229004,146.755569 213.380081,145.486740 214.681610,145.510696 
	C224.144043,145.684814 233.611938,145.628204 243.076874,145.527786 
	C244.594330,145.511688 246.482880,145.847031 247.379730,143.919357 
	C243.057663,138.810242 222.077927,137.769775 211.774841,142.463425 
M253.846100,163.864655 
	C254.309357,164.686829 254.301987,165.881104 256.222412,166.163971 
	C256.675446,158.939316 257.180267,151.754623 257.550873,144.563004 
	C257.704620,141.580063 257.631531,138.580612 257.546997,135.591904 
	C257.493469,133.700378 256.506378,132.374710 254.507446,132.322922 
	C252.458206,132.269821 251.594681,133.633041 251.405060,135.505859 
	C251.184311,137.686127 251.137817,139.901642 252.447708,141.768661 
	C254.638046,144.890594 254.719070,148.278259 253.969589,151.789062 
	C253.161057,155.576508 253.232346,159.374634 253.846100,163.864655 
M206.571640,135.051071 
	C206.342438,133.264694 205.793961,131.672607 203.570251,131.939835 
	C201.842194,132.147461 201.087692,133.510910 200.835938,135.077316 
	C199.988068,140.352753 200.267441,145.655273 200.658768,150.943497 
	C200.989380,155.411438 201.485214,159.867142 201.948776,164.759293 
	C204.461777,163.256912 204.604492,161.522491 204.532516,159.932358 
	C204.186371,152.284866 202.356827,144.526886 206.580032,137.283722 
	C206.796097,136.913177 206.605072,136.305252 206.571640,135.051071 
z"/>
</svg>