<svg version="1.1" id="Layer_1" xmlns="http://www.w3.org/2000/svg" xmlns:xlink="http://www.w3.org/1999/xlink" x="0px" y="0px"
	 width="100%" viewBox="0 0 1024 1024" enable-background="new 0 0 1024 1024" xml:space="preserve">
<path fill="#000000" opacity="1.000000" stroke="none" 
	d="
M337.906250,134.094009 
	C352.872070,134.452438 363.704651,127.325752 373.157593,117.259338 
	C375.337250,114.938202 375.821381,111.964050 376.938232,109.207100 
	C380.177124,101.211990 384.301453,93.579056 385.428375,84.784462 
	C385.842133,81.555611 388.049988,78.786751 390.260498,76.180489 
	C401.458466,62.977810 415.726196,54.355255 431.694153,48.359638 
	C446.032379,42.975945 460.230896,37.252293 474.917145,32.746609 
	C490.957581,27.825453 506.932404,25.489521 523.634338,28.507982 
	C531.469177,29.923931 539.531372,30.031155 547.452942,31.029842 
	C559.659912,32.568802 570.696655,27.502789 582.186829,25.098112 
	C591.187561,23.214417 600.134766,21.363003 609.387207,21.875376 
	C617.276855,22.312281 624.465332,24.447767 629.997498,30.543493 
	C630.888855,31.525631 631.830078,32.573528 632.962708,33.208397 
	C643.336243,39.023361 650.738281,48.155411 658.896118,56.419857 
	C663.438782,61.021957 668.693176,64.395554 674.604248,66.831055 
	C684.009155,70.706154 692.626160,76.065849 701.477844,80.984848 
	C702.786438,81.712059 704.018982,82.777031 705.421814,83.101288 
	C715.136414,85.346786 723.177734,91.510925 732.461853,94.597908 
	C738.728271,96.681534 743.008301,101.071922 746.752869,105.709877 
	C750.461731,110.303566 754.813660,112.411469 760.114807,111.855461 
	C771.378845,110.674034 779.336792,117.102409 787.383179,123.102119 
	C791.198975,125.947334 795.433533,128.119797 798.937378,131.661530 
	C802.574158,135.337799 804.659119,139.359085 805.892639,144.015472 
	C807.261475,149.183044 809.799072,153.548523 813.637207,157.185135 
	C836.703369,179.040268 843.757996,206.546631 841.867004,237.194504 
	C841.755188,239.007645 841.553589,240.948807 840.817993,242.568985 
	C834.449646,256.594879 836.931213,271.751526 834.994812,286.335052 
	C832.539185,304.829041 836.097107,323.274231 834.895264,341.708344 
	C834.202454,352.333771 834.773743,363.030548 833.073120,373.591370 
	C832.835205,375.068726 832.771301,376.676605 832.120789,377.969452 
	C824.379456,393.354218 829.137695,408.214600 833.872498,423.088837 
	C834.902100,426.323273 836.924377,428.999237 838.816223,431.736053 
	C850.907166,449.226837 854.360718,468.146484 848.256042,488.643433 
	C846.770508,493.631592 845.861572,498.695557 846.040894,503.909241 
	C846.337402,512.530945 844.230652,520.911133 842.040649,528.997131 
	C837.405762,546.110229 836.330566,563.156677 837.747559,580.802856 
	C839.644592,604.426392 836.795837,628.035950 835.297546,651.627136 
	C835.065552,655.280762 835.003845,658.959778 835.127075,662.618164 
	C835.371521,669.873657 834.661865,676.886047 831.414062,683.543762 
	C829.262268,687.954651 830.178284,692.010925 833.861938,695.302490 
	C836.759827,697.891968 838.331421,701.200378 838.630005,704.934509 
	C839.348328,713.915955 839.504944,722.765503 835.991577,731.484009 
	C832.277283,740.701294 831.388977,750.250366 832.981995,760.373779 
	C835.600281,777.013367 833.073181,792.649536 819.700745,804.743896 
	C818.355896,805.960327 816.881409,807.061035 815.358643,808.048279 
	C808.805115,812.297424 803.237122,817.241394 800.707092,825.079407 
	C799.044922,830.228882 795.832397,834.614075 791.328064,837.744507 
	C786.347107,841.206116 784.324707,846.075012 784.085876,851.833923 
	C783.924194,855.731018 782.772095,858.860962 779.431152,861.244934 
	C775.981689,863.706299 774.557312,867.450989 774.073120,871.591370 
	C772.751831,882.889526 770.225830,893.909973 766.133179,904.532532 
	C765.015747,907.432800 764.640503,910.403015 764.989502,913.369202 
	C767.662964,936.094604 752.004883,951.707825 731.132080,955.501465 
	C714.277222,958.564880 697.490417,962.355652 680.503540,964.333008 
	C662.346436,966.446472 643.847046,968.018616 625.719727,964.826050 
	C612.192871,962.443665 598.628723,960.021973 585.155701,957.184082 
	C570.173889,954.028259 554.866821,952.699402 539.636230,951.090210 
	C534.635010,950.561829 529.641785,951.240417 524.705139,951.995178 
	C510.221283,954.209473 496.288452,950.006897 482.097931,948.682007 
	C466.401398,947.216614 450.977051,942.802185 435.028046,944.120422 
	C426.146729,944.854492 417.123749,943.981506 408.407745,946.645264 
	C399.451141,949.382629 390.674927,946.824158 381.877197,945.454834 
	C374.767853,944.348267 367.963623,943.220886 361.364136,948.252441 
	C358.236603,950.636963 353.358185,950.016602 349.210632,949.805725 
	C338.565186,949.264282 328.055023,947.621277 317.602173,945.589539 
	C316.947937,945.462341 316.255646,945.131226 315.644379,945.242676 
	C306.223694,946.959351 298.811859,941.417175 290.895844,938.114746 
	C284.699341,935.529724 278.139832,935.993652 271.848175,934.415405 
	C261.182526,931.739929 257.057068,924.607483 261.104736,914.569702 
	C262.243408,911.745850 262.097992,909.017456 260.652618,906.384583 
	C258.407318,902.294495 256.039734,898.321289 252.667526,894.969727 
	C244.860275,887.210083 240.120270,877.419434 235.124344,867.816895 
	C234.896286,867.378540 234.640869,866.871765 234.652756,866.403259 
	C235.039078,851.196228 226.154251,837.630188 226.873642,822.350098 
	C227.015900,819.328491 226.127991,816.364319 224.758865,813.674866 
	C219.110687,802.580322 215.270477,790.501465 206.865952,780.901428 
	C200.217224,773.307129 197.229950,764.064880 196.496048,754.322021 
	C195.347519,739.074524 191.608109,724.036987 192.912109,708.580505 
	C193.456726,702.125183 194.531876,695.697998 194.102112,689.157288 
	C193.908157,686.205505 193.160736,683.810425 191.167038,681.481873 
	C183.634613,672.684387 182.163757,657.565308 187.516739,647.145508 
	C188.320908,645.580200 189.346664,644.372070 191.112320,643.950134 
	C196.302338,642.709900 197.898697,638.803650 197.823044,634.154663 
	C197.747437,629.508728 197.646637,624.737366 196.574127,620.256226 
	C192.802780,604.498840 195.329391,589.096863 198.835861,573.802856 
	C202.945175,555.879639 202.167221,538.316528 197.947693,520.444824 
	C195.081696,508.305878 190.328842,497.080811 185.564041,485.727661 
	C182.525101,478.486694 184.397705,470.529480 183.005768,463.030975 
	C180.429993,449.155121 182.996902,435.212524 182.199448,421.323181 
	C182.133224,420.169647 182.083496,418.881836 181.558762,417.908264 
	C174.898026,405.550598 179.797089,395.186310 187.110657,385.247040 
	C189.155518,382.468048 190.094864,379.309418 190.662704,376.006378 
	C196.077332,344.510864 199.252411,312.694702 204.142929,281.131805 
	C207.394730,260.144989 213.642883,239.996872 224.545288,221.484192 
	C227.739700,216.059921 230.513000,210.287552 232.675125,204.380402 
	C235.479004,196.719971 241.946350,192.333206 247.149338,186.880051 
	C252.705719,181.056458 259.776825,176.557907 264.765350,170.340485 
	C272.522583,160.672256 282.869598,154.225510 291.855286,146.122314 
	C292.720001,145.342514 293.810852,144.757767 294.510986,143.859711 
	C301.991119,134.264664 312.602417,133.667374 323.432709,133.742752 
	C328.096558,133.775223 332.759277,133.974976 337.906250,134.094009 
M556.727112,778.905518 
	C565.047974,776.491394 568.278687,769.013489 563.846863,761.358459 
	C558.427368,751.997375 550.046265,747.240295 539.176880,747.124695 
	C534.625061,747.076294 530.241943,747.619751 528.075500,751.061523 
	C531.785950,770.922729 542.720764,778.181396 561.734802,771.977356 
	C561.739014,776.074280 557.874817,776.748535 555.105347,779.115417 
	C549.570801,779.621826 544.087219,779.445190 538.715271,777.792725 
	C544.321045,780.606934 549.988525,782.482788 556.727112,778.905518 
M376.318909,607.417480 
	C374.293671,634.309387 362.347626,656.167236 342.443054,673.991455 
	C374.378143,654.121094 385.453125,623.289124 387.685974,587.678528 
	C390.417023,596.988220 390.145599,606.372986 390.501373,615.736877 
	C391.052551,613.986450 391.440460,612.227478 391.694824,610.449463 
	C394.108063,593.582397 392.256500,576.948730 389.137848,560.344788 
	C386.718079,547.461731 383.549469,534.585571 385.727478,521.317017 
	C386.553894,516.282166 387.936371,511.338562 389.065399,506.353363 
	C374.061035,527.760864 376.591644,552.253479 376.375336,576.320801 
	C372.115265,551.010498 369.276031,525.825500 380.956451,501.221191 
	C377.623383,501.215088 376.661407,503.363617 375.340118,504.921722 
	C362.882324,519.612244 358.224945,536.961304 357.996094,555.835327 
	C357.972412,557.790283 358.580658,560.043579 356.124573,562.234253 
	C354.375793,552.430237 355.360321,543.366516 356.664825,534.370728 
	C359.690491,513.505920 368.046082,495.489075 385.359528,482.498932 
	C387.124115,481.174927 387.821869,479.599426 387.961731,477.429352 
	C388.432373,470.126770 389.113342,462.838043 389.648102,455.539185 
	C390.101776,449.346130 389.125549,448.480560 382.974731,449.680359 
	C370.344208,452.143982 358.763916,456.882050 348.977631,465.494324 
	C347.935455,466.411499 347.016418,467.816101 345.207886,467.356171 
	C344.760712,465.697998 346.008209,464.855377 346.870758,463.979370 
	C358.311249,452.360565 371.443604,443.475128 387.593048,439.943726 
	C391.293549,439.134552 392.953217,437.445709 393.855652,433.976990 
	C395.491302,427.689911 397.893158,421.648895 400.477814,415.682343 
	C410.396576,392.785400 425.025269,373.443542 444.134521,357.426453 
	C448.801941,353.514374 448.698181,352.531860 445.272552,347.485992 
	C443.809937,345.331665 440.999969,344.012604 440.539429,340.748260 
	C441.503021,340.880829 442.089600,340.789581 442.435059,341.036163 
	C445.278809,343.065582 448.160583,345.056488 450.863190,347.264221 
	C452.881866,348.913269 454.564331,349.580505 457.049072,347.891510 
	C476.620941,334.588013 498.293243,326.375092 521.417297,321.845886 
	C525.473755,321.051361 527.164551,318.781067 526.920959,314.890686 
	C526.461182,307.546936 526.874939,300.219330 527.793030,292.961823 
	C528.468445,287.622314 528.469360,281.999695 531.394226,276.497345 
	C532.759460,279.013031 532.210510,280.862610 532.147400,282.654419 
	C531.770508,293.357025 532.492554,303.924957 535.357422,314.314636 
	C536.365417,317.970215 538.442566,319.724792 542.155579,319.437225 
	C560.561462,318.011810 578.680969,320.320984 596.735168,323.541595 
	C604.147034,324.863739 604.240479,324.898041 607.711853,317.893463 
	C615.294006,302.593658 625.632019,289.475677 638.638733,278.449524 
	C640.085266,277.223297 641.366211,275.499603 644.380493,275.850189 
	C640.057251,280.712158 635.856079,285.077301 632.066040,289.774200 
	C624.161743,299.569733 618.251099,310.554810 613.540405,322.197754 
	C612.729675,324.201569 612.386108,326.028442 615.178955,326.960754 
	C617.690369,327.799042 618.969604,326.771271 619.766235,324.564240 
	C620.105530,323.624390 620.450012,322.685730 620.822998,321.758972 
	C633.199097,291.012329 654.162537,268.406464 684.370544,254.464676 
	C689.151855,252.257996 694.405151,251.051285 699.084290,247.882599 
	C696.162598,243.977219 691.768311,243.090149 688.112366,240.974319 
	C683.034241,238.035446 678.515564,238.781372 673.559265,241.284424 
	C662.683838,246.776871 651.838623,252.243347 642.815369,260.659576 
	C642.047546,261.375732 641.265198,262.492188 639.259949,261.671539 
	C647.540344,250.304367 658.787842,242.499481 669.560974,234.808060 
	C669.028198,232.445023 667.686707,232.027344 666.532532,231.412933 
	C655.862183,225.732849 645.510498,224.557526 635.745056,233.404022 
	C633.281189,235.636078 630.571899,237.597000 627.979004,239.687119 
	C625.991028,241.289673 624.653809,243.749847 621.613525,244.713577 
	C621.482910,242.068527 623.028381,240.681641 624.296692,239.304260 
	C628.018494,235.262512 631.872681,231.342911 635.662476,227.363510 
	C638.534363,224.347961 638.097900,222.623138 634.137451,221.433151 
	C627.276245,219.371521 620.496521,217.836670 615.051453,224.563995 
	C614.664246,225.042389 613.954041,225.377090 613.294434,224.635559 
	C612.928223,222.518463 616.194885,220.579483 613.698730,218.291504 
	C610.538208,215.394577 598.818115,215.827850 595.988037,219.060089 
	C585.301331,231.265549 577.618469,245.156143 572.713928,260.616852 
	C572.161438,262.358429 573.099670,264.794373 570.612427,265.802551 
	C569.255188,264.701904 569.884216,263.382721 570.040649,262.122040 
	C571.788635,248.041245 574.930298,234.304901 579.907288,220.989166 
	C581.559875,216.567719 580.580688,215.152985 575.785583,215.105316 
	C569.291199,215.040756 562.790649,215.257370 556.297607,215.488495 
	C549.233582,215.739944 542.583862,216.773926 540.605286,225.285095 
	C540.468994,225.871048 539.782532,226.302887 538.877319,225.719788 
	C538.877319,223.558472 538.877319,221.293137 538.877319,219.046707 
	C536.876648,217.784439 534.887024,218.314713 532.968872,218.714600 
	C527.269897,219.902725 521.644409,221.785187 515.891968,222.301498 
	C505.060455,223.273666 500.847870,229.927887 499.270294,239.536865 
	C498.570923,243.796570 497.605621,248.012604 496.761017,252.248459 
	C493.958344,247.182632 495.400726,242.134415 495.630981,237.117859 
	C496.016418,228.722031 495.236511,228.154510 487.499542,231.022217 
	C485.626831,231.716293 483.815674,232.582504 481.927979,233.228668 
	C478.947998,234.248749 477.857941,236.318542 477.986206,239.365234 
	C478.286743,246.505554 478.276886,253.633881 480.169678,260.655975 
	C480.963074,263.599365 482.639221,266.626831 481.705444,270.090332 
	C479.521423,269.304077 479.190857,267.510162 478.549347,266.066345 
	C475.642334,259.523499 472.721832,252.981415 470.049530,246.341125 
	C467.695068,240.490555 466.697662,239.976456 460.841675,242.768921 
	C450.133820,247.875015 440.124817,254.173370 430.333069,260.822968 
	C428.596954,262.001984 426.632782,263.096832 425.748901,265.353882 
	C428.528229,271.718079 432.825836,277.243591 436.145203,283.417572 
	C430.837097,279.925537 426.090179,276.077148 421.661316,271.892120 
	C419.318207,269.677979 417.479553,269.698975 415.282227,271.771301 
	C414.071625,272.913116 412.841309,274.065552 411.477234,275.006348 
	C408.985229,276.725159 409.164429,278.618622 410.527008,280.997009 
	C413.943817,286.961273 418.000366,292.415741 422.756378,297.375916 
	C423.812592,298.477509 425.677887,299.164398 425.146576,302.170532 
	C416.423279,296.731018 409.025330,290.244812 401.348694,283.488342 
	C388.263336,294.985046 376.829498,307.491058 367.217743,321.785889 
	C373.996735,326.936432 381.750854,329.275299 387.555115,334.720306 
	C382.334076,334.082062 377.411224,332.777618 372.430450,331.755219 
	C361.310669,329.472595 361.217041,329.553650 355.235931,339.142761 
	C353.649139,341.686737 352.175568,344.301086 350.607819,346.857239 
	C348.420471,350.423706 349.455475,352.311279 353.508240,353.087616 
	C361.709412,354.658600 369.613190,357.306702 377.406219,360.246399 
	C379.610291,361.077820 382.276062,361.268524 383.885864,363.499268 
	C382.431641,364.762878 381.186279,363.963928 379.926056,363.683289 
	C368.870850,361.221802 357.794159,361.590637 346.673584,363.277924 
	C343.325500,363.785950 341.431152,365.390137 340.170288,368.546173 
	C335.594574,379.999847 331.483582,391.608337 328.541718,403.582001 
	C326.824768,410.570129 324.912689,417.575104 324.489197,425.589111 
	C331.153442,422.702057 336.234955,418.048950 343.522430,416.305603 
	C342.371674,418.983704 340.713226,419.577942 339.414856,420.521149 
	C333.707489,424.667419 328.756317,429.559875 324.517761,435.199707 
	C323.172974,436.989075 322.455780,438.850708 322.284485,441.135406 
	C321.135345,456.462708 321.414551,471.767822 323.463715,486.980225 
	C324.370117,493.709076 324.734070,500.646881 327.496643,507.431610 
	C330.832794,502.518951 331.727264,496.714142 336.386810,493.166412 
	C330.529846,510.763062 331.752197,528.493103 333.605103,546.824768 
	C335.537140,544.557251 334.830627,541.804565 337.356018,539.713013 
	C342.209900,557.624023 347.215332,574.958984 348.291718,593.125366 
	C349.387482,611.618530 346.413483,629.283386 336.712616,645.521118 
	C341.891022,642.386353 344.525879,637.354004 348.115479,633.101929 
	C344.032227,652.622192 333.444092,667.565063 316.785675,678.293396 
	C355.985291,663.426025 369.529053,630.733032 376.141235,592.950684 
	C377.649872,597.529785 375.776123,602.038635 376.318909,607.417480 
M470.242218,618.581543 
	C477.361511,616.913879 484.498535,615.317627 491.594788,613.556946 
	C497.796600,612.018188 502.955780,608.735962 504.254913,602.174622 
	C505.507721,595.847412 502.635193,589.790588 502.176605,582.610413 
	C499.999756,585.026062 499.544830,586.905029 499.482178,588.618286 
	C499.033417,600.885559 492.179352,606.754089 480.723694,609.672607 
	C461.997925,614.443237 443.767517,620.840820 426.521210,629.748962 
	C425.634064,630.207275 424.716034,630.696289 423.513947,629.393188 
	C433.465546,614.716614 440.550323,598.895386 439.757812,580.360596 
	C441.923431,578.281799 445.738312,578.435486 447.890106,575.674255 
	C445.340088,573.583984 442.675446,576.231201 439.908630,574.416504 
	C440.193298,566.143494 437.163818,558.260010 434.104126,550.343811 
	C424.314636,525.015808 418.950226,499.023193 422.647278,471.710175 
	C427.517609,435.729187 445.413910,407.932678 475.372620,387.724060 
	C476.416992,387.019592 477.504669,385.447052 479.194611,386.714325 
	C479.021851,388.330414 477.742004,388.970917 476.752319,389.802765 
	C452.014557,410.595703 443.227875,437.048615 449.506165,468.444183 
	C452.088104,481.355682 457.481018,493.213959 467.537506,502.256042 
	C469.599731,504.110229 471.714355,505.489990 471.042694,508.955933 
	C472.917908,508.456482 474.211487,508.192871 475.450775,507.770233 
	C517.184570,493.537048 555.502075,473.154205 588.916260,444.139099 
	C606.082764,429.232697 621.771667,412.968475 633.554504,393.262238 
	C635.634155,389.783966 634.892212,387.810577 631.853088,385.941589 
	C627.031189,382.976227 622.156128,380.092712 617.406921,377.015106 
	C613.382202,374.407074 609.273010,373.502228 604.610962,375.107544 
	C601.788513,376.079407 599.145508,375.095184 596.444519,373.933167 
	C560.655396,358.536072 524.614197,357.533081 489.017639,373.900208 
	C433.348022,399.496826 407.157257,457.515198 418.769531,517.498230 
	C421.635742,532.303345 427.336212,546.160950 432.487640,560.208435 
	C435.222992,567.667419 436.831696,575.476929 435.961426,583.225769 
	C434.124023,599.586304 429.487366,615.162598 419.865448,628.894897 
	C418.541626,630.784180 417.187073,632.836487 416.603394,635.015991 
	C415.753784,638.188416 416.203186,641.218018 420.511597,642.418091 
	C421.646729,637.013367 425.769989,634.852173 429.972809,632.689087 
	C442.498810,626.242310 455.960724,622.471680 470.242218,618.581543 
M672.440613,643.882019 
	C671.525269,637.631226 670.527771,631.391235 669.710083,625.127686 
	C667.354736,607.085938 666.942749,588.958191 667.699829,570.805237 
	C667.888123,566.291931 665.952820,563.789185 662.028625,561.902710 
	C657.241882,559.601501 652.477905,557.098389 648.129822,554.070984 
	C638.803284,547.577393 629.902222,540.562378 624.664917,530.002258 
	C623.353760,527.358398 622.923828,525.059692 625.336121,522.785278 
	C632.381775,516.142334 639.511292,509.604156 648.409241,505.459015 
	C666.007446,497.260864 688.390930,506.881958 694.325073,525.341980 
	C698.261292,537.586792 700.013916,550.286438 701.203430,563.053833 
	C701.756042,568.985352 711.394226,578.001099 718.692932,578.320190 
	C710.881104,557.340088 704.466858,536.289612 700.411926,514.789673 
	C698.765442,514.465820 698.986084,516.557678 697.270813,515.866028 
	C696.894897,515.190186 696.372375,514.192261 695.797302,513.225586 
	C688.524170,500.996948 678.360107,491.931519 665.679443,485.573853 
	C660.131042,482.792145 654.850525,482.967590 649.602844,486.341827 
	C644.115417,489.870087 638.951538,493.803833 634.385681,498.455444 
	C614.967468,518.238403 593.342712,534.974182 568.044189,546.642578 
	C564.929321,548.079224 564.120728,549.903625 565.087341,553.365601 
	C567.744202,562.881287 568.851807,572.550659 567.450623,582.496155 
	C566.140503,591.795776 563.474609,600.650024 560.321655,609.441406 
	C556.486511,620.135193 557.917053,624.968445 567.374939,631.101318 
	C601.258850,653.072815 636.654846,672.278870 673.690369,688.418579 
	C674.638977,688.831970 675.727722,689.703979 676.970459,688.767822 
	C676.941223,688.272095 676.992371,687.764771 676.868713,687.304382 
	C676.523926,686.020752 676.144348,684.743713 675.712524,683.486694 
	C666.635498,657.067871 661.049438,629.990601 659.441650,602.041565 
	C659.011108,594.556702 658.833252,587.080078 658.573486,579.599365 
	C658.380493,574.043457 656.537231,570.057922 651.015808,567.397278 
	C641.537964,562.830139 633.000061,556.653687 625.281921,549.441772 
	C619.608948,544.140930 615.003723,538.095276 612.489868,530.630737 
	C611.727051,528.365479 611.092224,526.129761 612.596619,522.972595 
	C616.181580,531.330444 620.479675,538.142395 626.344360,544.010681 
	C635.189575,552.861328 645.531860,559.519348 656.692993,564.825623 
	C661.722656,567.216858 663.358337,570.344177 663.263306,575.677856 
	C663.112244,584.158691 663.663818,592.653931 663.977905,601.140808 
	C665.069641,630.638611 670.733826,659.231323 680.903320,686.947266 
	C681.785706,689.352173 683.198120,691.758179 682.585327,694.577881 
	C680.196289,695.787170 678.326538,694.346191 676.401428,693.575134 
	C652.394104,683.960083 629.326843,672.373779 606.691223,659.931946 
	C589.177734,650.305481 571.666870,640.640076 555.266296,629.149231 
	C549.344177,625.000000 549.273621,624.438721 551.952393,617.597839 
	C553.773804,612.946350 555.683716,608.328857 557.456238,603.658936 
	C563.213135,588.491516 564.917236,573.017761 560.806213,557.135193 
	C560.284546,555.119934 560.091064,552.806213 557.086853,552.462463 
	C555.471191,554.744995 556.376709,557.007629 556.756409,559.219299 
	C557.885254,565.793640 558.462219,572.323792 557.753357,579.061218 
	C556.260742,593.249756 550.890747,606.064392 544.816284,618.708191 
	C540.989624,626.673157 541.061829,627.362732 548.346008,631.977966 
	C586.435181,656.111023 626.714783,676.030212 668.076233,693.833374 
	C674.724854,696.695068 681.374695,699.629028 689.290100,701.842712 
	C682.408569,682.604187 676.250366,664.018127 672.440613,643.882019 
M579.713440,739.297363 
	C561.722351,711.308105 551.343567,680.293152 543.918579,648.181152 
	C542.578308,642.384888 540.502869,637.604492 535.901917,633.822571 
	C533.882690,632.162842 531.595886,630.145203 532.118530,627.158386 
	C533.750977,617.828674 527.866455,612.310791 522.089661,606.712646 
	C519.639893,604.338623 517.879028,605.583862 516.675598,608.108948 
	C513.768799,614.208008 509.697052,619.430237 504.902313,624.134766 
	C502.251221,626.735962 501.123383,629.865967 501.301514,633.615601 
	C501.506561,637.932800 501.234192,642.252075 502.044525,646.560974 
	C502.930084,651.269714 503.450531,656.046997 504.203217,661.305115 
	C501.688385,660.003113 501.717529,658.135742 501.156494,656.657166 
	C499.030396,651.054199 497.123688,645.366821 494.942535,639.786255 
	C492.767975,634.222412 490.634857,633.206116 484.882690,634.719849 
	C478.075989,636.510986 472.239014,640.029724 467.864746,645.518921 
	C461.016418,654.112854 454.412476,662.902832 447.779541,671.666199 
	C445.601044,674.544373 442.334900,676.612488 440.851868,681.257874 
	C464.261993,687.056213 485.764587,696.992249 505.856842,710.574219 
	C504.558014,698.080322 501.046204,686.324036 501.316986,674.071472 
	C504.815277,684.264282 506.846344,694.749207 508.429596,705.351929 
	C509.074341,709.669556 508.895233,714.208923 513.142090,717.429199 
	C521.117920,723.477173 528.119507,730.655701 535.130188,737.782043 
	C536.991638,739.674194 538.966614,740.567383 541.669861,740.784729 
	C549.877197,741.444458 557.457825,744.255493 563.128174,750.279846 
	C566.838745,754.222046 570.887390,756.324341 576.087952,756.367798 
	C580.764648,756.406921 585.410339,758.316772 590.370239,757.134644 
	C589.505920,752.112122 586.384033,748.485474 585.082336,743.284485 
	C591.736877,747.799316 595.103333,755.070374 602.689697,757.369507 
	C602.586121,754.702637 601.370728,752.857666 600.473145,750.937256 
	C594.467224,738.086731 594.751526,725.922302 603.806824,714.377136 
	C607.651245,709.475708 609.473816,703.636047 609.590637,697.215088 
	C607.339417,708.912842 599.951538,717.433105 592.721313,726.352966 
	C591.315735,724.392029 592.211365,722.973999 592.504211,721.569092 
	C594.066589,714.074524 593.270874,706.871216 588.999878,700.468506 
	C582.599609,690.873840 574.545349,682.660950 566.336792,674.617188 
	C566.198669,674.481812 565.741089,674.672302 565.195496,674.740234 
	C565.195496,675.868958 565.101257,677.021729 565.209656,678.155151 
	C566.803101,694.820801 570.840881,710.907471 576.769897,726.537109 
	C578.245789,730.427673 579.829895,734.276978 581.327209,738.159607 
	C581.735046,739.217102 582.419495,740.633179 579.713440,739.297363 
M444.499939,767.653320 
	C467.707672,767.434998 490.648956,769.914429 513.412964,774.326294 
	C515.684570,774.766541 518.247070,775.804199 520.429626,773.740356 
	C519.578796,769.152954 517.099915,766.533386 512.588196,765.717407 
	C506.542480,764.624084 500.491302,763.503540 494.524902,762.055176 
	C491.794312,761.392334 488.628418,762.178650 486.075348,760.070618 
	C487.541504,758.110352 489.330139,758.869629 490.840454,758.923035 
	C496.826141,759.134460 502.803558,759.625671 508.789673,759.756592 
	C511.273956,759.810974 515.172729,761.305786 515.882629,758.299255 
	C516.709778,754.796570 512.365356,754.502197 509.987061,753.511536 
	C474.742584,738.831665 438.080383,733.477173 400.101532,737.239624 
	C374.736786,739.752380 350.378906,746.081055 327.189514,756.770081 
	C323.282532,758.570984 320.283417,761.114502 318.112579,764.937744 
	C312.729889,774.417725 308.701843,784.419678 306.144653,794.981628 
	C305.146912,799.102295 302.567322,803.437195 306.607239,807.565430 
	C307.162354,808.132751 306.843079,809.844360 306.536591,810.913879 
	C305.474518,814.620056 306.584808,817.842773 308.558716,820.859863 
	C315.844788,831.996582 326.715424,833.507202 338.844543,832.582825 
	C361.310333,830.870605 378.963531,819.473755 395.251160,805.255066 
	C403.250519,798.271729 403.060333,789.980408 395.164917,782.624512 
	C394.435669,781.945068 393.595612,781.298828 393.108704,780.461731 
	C391.819794,778.245789 388.548981,776.551819 389.701630,773.699646 
	C390.806366,770.966248 394.240112,771.294434 396.764374,770.855042 
	C412.224609,768.163696 427.821442,767.264404 444.499939,767.653320 
M500.654602,529.236145 
	C498.572968,532.595642 497.138519,536.216736 495.747070,540.481140 
	C497.573090,539.817688 498.001190,538.739319 498.485748,537.726379 
	C503.552429,527.135315 515.356079,520.753479 526.794250,522.567505 
	C537.018921,524.189148 544.575195,529.515686 549.293091,538.876221 
	C550.417175,541.106445 550.763000,544.500610 555.121765,544.403198 
	C555.161743,536.821411 549.870667,531.890381 546.774719,525.989014 
	C552.494202,528.275574 555.894043,532.832764 558.500854,537.769043 
	C560.746582,542.021484 563.072754,541.699097 566.822510,540.008789 
	C588.499451,530.237366 607.466492,516.657654 624.335144,499.992523 
	C630.492493,493.909515 636.718445,487.893707 643.805725,482.834808 
	C652.303650,476.769073 660.891907,476.214874 669.931580,481.611542 
	C676.541077,485.557373 682.770081,489.941254 688.208435,495.426514 
	C689.740540,496.971832 691.067322,498.955658 693.649841,499.524719 
	C694.997559,494.262207 693.541321,489.570984 692.671448,484.891663 
	C687.694275,458.116394 679.809692,432.244568 668.209961,407.564423 
	C665.340454,401.458954 664.438416,401.482758 660.352905,406.590057 
	C647.105530,423.150665 632.419678,438.322449 616.267395,452.080627 
	C580.482971,482.561005 539.858337,503.985077 494.802307,517.142456 
	C490.174408,518.493896 485.513672,519.733093 480.888611,521.093933 
	C478.893066,521.681030 476.671082,522.595276 477.905670,525.196655 
	C480.366455,530.381653 483.183350,535.397583 486.563965,541.837402 
	C493.007416,530.139160 500.374664,521.309875 512.656311,518.349670 
	C509.088623,522.118713 503.903656,524.068542 500.654602,529.236145 
M598.651001,358.152466 
	C600.204163,352.891296 601.610779,347.581207 603.346558,342.381012 
	C605.658325,335.455353 605.060059,334.020599 597.768311,332.474030 
	C579.810608,328.665253 561.769592,326.771881 543.293396,327.980103 
	C511.167175,330.081024 481.922058,339.919403 456.300934,359.345581 
	C411.819672,393.071747 392.627716,438.182159 397.345917,493.653595 
	C397.580597,496.412842 398.717651,497.829346 401.717834,497.876587 
	C407.233612,497.963348 407.774017,497.495880 407.756470,491.603149 
	C407.673340,463.678650 413.638275,437.317566 429.468689,413.969086 
	C455.578247,375.459717 492.254303,355.607971 538.670715,353.683655 
	C556.520203,352.943665 573.820435,355.957520 590.611816,361.902954 
	C594.328003,363.218689 597.125732,363.245148 598.651001,358.152466 
M421.723755,715.043823 
	C405.418304,713.502808 389.113739,713.831421 372.893036,715.820312 
	C361.026215,717.275452 349.105743,718.809265 337.822968,723.163391 
	C327.882324,726.999695 324.269257,735.474121 321.457306,744.775940 
	C322.352844,745.035156 322.684753,745.249329 322.953430,745.187744 
	C323.924316,744.964905 324.903961,744.725098 325.827179,744.358032 
	C361.597717,730.135498 398.641663,725.128235 436.947479,728.629395 
	C463.039551,731.014160 488.077728,737.451965 511.989868,747.989807 
	C516.926880,750.165527 519.742249,749.975525 523.352478,745.955383 
	C526.320068,742.651062 526.965210,740.562195 523.567017,737.325317 
	C500.180542,715.049622 473.073669,699.522583 441.746796,691.345581 
	C428.260040,687.825195 414.413391,687.832642 400.715363,686.356018 
	C399.066772,686.178223 397.428833,685.881165 395.795258,685.587708 
	C378.121826,682.413086 372.467896,685.124146 363.881714,700.933411 
	C363.107971,702.358093 361.730194,703.782898 362.791321,705.508606 
	C363.865845,707.256042 365.790070,706.706970 367.369110,706.506042 
	C383.139282,704.498474 398.865570,704.921265 414.661560,706.542847 
	C443.346710,709.487488 470.277832,718.078491 496.009216,730.794800 
	C497.204041,731.385315 498.818359,731.780334 498.913696,734.399414 
	C486.364899,729.395691 474.195190,724.570679 461.470856,721.493408 
	C448.694946,718.403748 435.791748,715.989990 421.723755,715.043823 
M650.923340,770.516968 
	C649.794067,763.791077 646.453308,758.438965 640.995056,754.357788 
	C633.322632,748.620911 624.534119,744.969482 615.970459,740.899292 
	C614.816406,740.350891 613.549866,739.786255 611.446411,741.455872 
	C621.655762,747.137939 628.051697,756.223938 634.765808,765.299500 
	C614.238342,769.665283 593.467773,764.981689 572.919128,764.587769 
	C571.189331,770.552368 572.293640,774.471436 577.906555,776.847168 
	C581.236267,778.256592 584.132751,780.674255 587.260071,782.579346 
	C601.760010,791.412537 616.072327,800.594482 632.141479,806.491089 
	C642.110779,810.149414 652.287415,812.193787 662.953552,810.763245 
	C670.059387,809.810242 672.728271,806.147766 671.613281,799.022766 
	C671.290283,796.958435 669.796570,795.045654 670.841064,792.396301 
	C676.798645,795.135132 679.908081,801.167419 685.584778,805.055359 
	C680.638733,791.273682 667.539246,775.182739 660.723145,774.113831 
	C660.045044,775.244324 660.540283,776.346497 660.769653,777.478394 
	C662.943604,788.209717 659.889526,792.744873 649.248779,794.748596 
	C645.763000,795.404907 642.311462,795.284607 638.820129,794.799133 
	C622.279297,792.498901 607.153931,785.997986 592.162659,779.110168 
	C591.288513,778.708496 589.783386,778.474915 590.291260,776.645569 
	C590.776672,776.645569 591.283630,776.535217 591.717651,776.666321 
	C592.988831,777.050415 594.233093,777.524292 595.483948,777.974182 
	C609.118774,782.877502 622.736328,787.855042 637.524780,787.840881 
	C648.890564,787.830017 653.017761,782.811829 650.923340,770.516968 
M659.274780,535.397888 
	C653.938538,534.745239 649.136047,530.991638 643.309387,532.986633 
	C638.772827,534.539917 638.342468,535.496155 641.705505,538.919006 
	C649.857422,547.215820 659.547546,553.310974 670.088501,558.023376 
	C673.114014,559.375977 674.440308,561.029297 674.401123,564.363892 
	C674.369751,567.031311 673.393982,569.974243 675.300049,572.361572 
	C678.501465,572.724243 679.694519,568.075928 683.552063,569.557739 
	C682.727661,570.630981 682.090027,571.375000 681.547302,572.182922 
	C679.502563,575.226868 678.295715,578.445190 680.278625,581.964478 
	C682.389099,585.709900 685.620850,584.242432 688.688782,583.632019 
	C695.266296,582.323486 701.691223,582.649048 707.203308,586.856445 
	C709.006775,588.233032 710.231934,588.846191 711.800354,587.129395 
	C713.684082,585.067444 711.973511,583.747131 710.510010,582.686218 
	C707.145203,580.247009 703.727478,577.869080 700.218872,575.643311 
	C696.042358,572.993896 694.310974,569.565063 694.579041,564.420776 
	C695.053284,555.319641 692.884888,546.632446 688.698364,538.470947 
	C686.646790,534.471558 684.287598,533.478943 679.915771,535.719971 
	C675.547241,537.959290 673.194824,541.906433 669.864441,545.805603 
	C668.471497,543.081970 665.692444,543.527283 664.220703,542.215027 
	C663.924683,540.114319 666.247864,539.030090 665.069885,536.901489 
	C663.534485,536.483337 661.802734,536.011780 659.274780,535.397888 
M576.515869,472.963257 
	C600.064087,458.131287 620.945312,440.108582 639.933716,419.839722 
	C647.001343,412.295471 653.533203,404.297150 659.605591,395.925629 
	C662.051636,392.553528 660.151978,390.405273 657.599487,388.386932 
	C654.604004,386.018311 653.524292,388.605438 652.249268,390.488373 
	C616.455383,443.350342 566.836182,478.387970 508.467316,502.219849 
	C501.919525,504.893341 494.779419,506.200623 489.015045,510.730438 
	C520.116272,503.284302 548.826294,490.233368 576.515869,472.963257 
M541.117249,563.692566 
	C540.789734,562.928101 540.533630,562.122314 540.119934,561.407654 
	C539.240479,559.888184 538.904907,557.620117 536.592834,557.707336 
	C534.851868,557.773071 533.519897,559.010254 532.779846,560.596619 
	C531.651978,563.014404 533.361145,564.243958 534.998108,565.493591 
	C536.922729,566.962830 538.031433,568.937317 538.672302,571.275574 
	C539.102478,572.845093 539.266968,574.221497 537.866516,575.342834 
	C536.458923,576.469849 535.045593,576.131470 533.738220,575.182129 
	C531.697815,573.700562 529.619385,572.510681 526.986694,572.241028 
	C522.556213,571.787109 519.137451,569.844666 517.602112,565.262451 
	C515.959229,560.359192 516.966675,556.125000 520.228943,552.254395 
	C521.445496,550.811035 523.574707,550.009277 523.657104,547.670776 
	C513.415588,547.158142 513.676392,547.884277 512.995544,556.926758 
	C512.396423,564.884155 515.293579,571.580139 521.615540,576.690308 
	C522.686890,577.556274 524.376709,578.052124 524.359192,579.949646 
	C522.469360,581.076477 521.111816,579.716614 519.821777,578.884460 
	C510.315857,572.752136 506.889771,563.180664 507.141418,552.718140 
	C507.524048,536.810120 522.918579,530.663330 532.111267,537.635132 
	C532.942322,538.265442 534.052002,539.124268 535.245056,538.040771 
	C534.063232,533.612610 531.178223,531.076111 526.255066,530.268860 
	C510.503754,527.686218 502.436859,540.860107 503.874054,554.564209 
	C505.659180,571.585938 517.971558,582.319641 528.338379,594.061035 
	C530.908875,596.972351 535.130493,597.475525 538.967468,595.245605 
	C542.718384,593.065613 544.703125,589.470642 543.501770,585.568176 
	C541.350708,578.580566 541.799255,571.504089 541.117249,563.692566 
M617.660217,351.409882 
	C619.028870,347.331757 620.260010,343.200317 621.813354,339.193787 
	C622.892456,336.410553 622.751221,334.427582 619.710693,333.173920 
	C616.578491,331.882446 614.310364,332.327820 612.939270,335.758301 
	C609.303284,344.855621 606.440063,354.170227 604.718445,363.822845 
	C604.102661,367.275330 605.719482,368.677399 609.072693,368.809814 
	C613.265381,368.975372 615.263306,366.776520 615.524414,362.928192 
	C615.773193,359.262909 616.531067,355.731659 617.660217,351.409882 
M570.615845,780.433472 
	C565.875671,779.888794 564.650879,784.830261 560.979980,787.178101 
	C574.098694,792.287048 587.217407,797.396057 600.336121,802.505066 
	C599.915710,800.853882 599.146118,799.980713 598.221741,799.326050 
	C589.296692,793.005859 580.641968,786.290344 570.615845,780.433472 
M674.451904,601.120239 
	C674.485168,602.117798 674.498779,603.116455 674.555115,604.112732 
	C674.866333,609.611755 676.020752,610.291931 680.856689,607.981750 
	C682.951599,606.981018 685.155945,606.210693 687.258911,605.225281 
	C688.944153,604.435608 691.028503,603.284119 690.402344,601.279053 
	C689.514282,598.435364 690.774353,594.631287 687.141113,592.868652 
	C679.546570,589.184204 675.703796,591.170898 674.568726,599.347290 
	C674.523010,599.676453 674.504333,600.009460 674.451904,601.120239 
M433.659210,675.782410 
	C442.417694,665.050476 449.471405,644.876221 446.542786,637.755615 
	C444.130859,644.707520 442.896057,651.578308 440.160065,657.970825 
	C437.403931,664.410522 433.866913,670.459473 430.328278,676.477539 
	C431.985657,677.371460 432.597748,676.773926 433.659210,675.782410 
M659.265991,516.098328 
	C653.097839,515.670166 647.239868,516.280762 642.807800,521.288025 
	C641.954224,522.252380 640.898315,523.421631 641.994385,524.806152 
	C642.844543,525.880127 644.072510,525.575256 645.222534,525.196533 
	C648.064270,524.260620 650.976501,523.501343 653.741333,522.377991 
	C657.761475,520.744690 662.355469,520.693115 666.533386,518.208130 
	C664.477356,515.791443 662.138062,516.558228 659.265991,516.098328 
M689.277100,620.454712 
	C686.851135,616.115784 683.106506,616.227600 678.973267,617.276489 
	C676.233032,617.971924 675.066101,619.446167 675.702881,622.283875 
	C676.277100,624.842224 676.769226,627.183167 680.443970,626.076538 
	C681.951965,625.622437 683.709900,626.001221 685.354126,625.995911 
	C688.596680,625.985474 690.459839,624.770081 689.277100,620.454712 
M699.792236,694.078186 
	C702.135986,694.288513 701.052124,692.716370 700.867310,691.823914 
	C699.892761,687.119812 698.847351,682.430115 697.794495,677.742615 
	C696.587952,672.370789 696.247375,666.786682 694.214905,661.445740 
	C693.759583,661.787781 693.548035,661.865417 693.535400,661.967834 
	C692.242859,672.389038 696.654724,682.094116 697.416321,692.265564 
	C697.458496,692.829163 698.617676,693.309143 699.792236,694.078186 
M685.822266,648.848816 
	C684.868286,646.005249 683.528198,643.466309 680.682678,641.950256 
	C678.752441,646.444885 681.368652,658.199829 684.903015,660.971985 
	C687.393921,657.353149 686.914978,653.498047 685.822266,648.848816 
M663.347351,533.799744 
	C665.694092,533.729919 666.460266,532.233948 666.557190,530.185974 
	C666.614685,528.969727 666.425415,527.667297 665.054077,527.387146 
	C662.529602,526.871643 660.105042,527.368713 657.943359,528.831238 
	C657.070740,529.421631 656.316406,530.370789 656.875610,531.333862 
	C657.992126,533.256897 660.095581,533.445068 662.077454,533.708984 
	C662.241760,533.730896 662.407471,533.742859 663.347351,533.799744 
z"/>
</svg>